<?xml version="1.0" encoding="UTF-8" standalone="no"?>
<!-- Created with Inkscape (http://www.inkscape.org/) -->

<svg
   xmlns:dc="http://purl.org/dc/elements/1.1/"
   xmlns:cc="http://creativecommons.org/ns#"
   xmlns:rdf="http://www.w3.org/1999/02/22-rdf-syntax-ns#"
   xmlns:svg="http://www.w3.org/2000/svg"
   xmlns="http://www.w3.org/2000/svg"
   xmlns:sodipodi="http://sodipodi.sourceforge.net/DTD/sodipodi-0.dtd"
   xmlns:inkscape="http://www.inkscape.org/namespaces/inkscape"
   width="270"
   height="270"
   id="svg2"
   version="1.1"
   inkscape:version="0.48.2 r9819"
   sodipodi:docname="hwk1.svg"
   inkscape:export-filename="C:\Users\jkitchin\Dropbox\surfaces\images\hwk1-cube.png"
   inkscape:export-xdpi="90"
   inkscape:export-ydpi="90">
  <defs
     id="defs4" />
  <sodipodi:namedview
     id="base"
     pagecolor="#ffffff"
     bordercolor="#666666"
     borderopacity="1.0"
     inkscape:pageopacity="0.0"
     inkscape:pageshadow="2"
     inkscape:zoom="1.88"
     inkscape:cx="75.675356"
     inkscape:cy="131.59884"
     inkscape:document-units="px"
     inkscape:current-layer="layer1"
     showgrid="false"
     units="in"
     inkscape:window-width="1280"
     inkscape:window-height="753"
     inkscape:window-x="-4"
     inkscape:window-y="-4"
     inkscape:window-maximized="1" />
  <metadata
     id="metadata7">
    <rdf:RDF>
      <cc:Work
         rdf:about="">
        <dc:format>image/svg+xml</dc:format>
        <dc:type
           rdf:resource="http://purl.org/dc/dcmitype/StillImage" />
        <dc:title></dc:title>
      </cc:Work>
    </rdf:RDF>
  </metadata>
  <g
     inkscape:label="Layer 1"
     inkscape:groupmode="layer"
     id="layer1"
     transform="translate(0,-782.35975)">
    <path
       style="fill:none;stroke:#000000;stroke-width:1px;stroke-linecap:butt;stroke-linejoin:miter;stroke-opacity:1"
       d="m 59.574468,203.51064 c -0.531915,0.70922 -1.139631,1.36747 -1.595745,2.12766 -0.09122,0.15204 0,0.35461 0,0.53191 0,0.17731 -0.07929,0.37333 0,0.53192 0.112138,0.22427 0.35461,0.35461 0.531915,0.53191 0.177305,0.17731 0.281168,0.53192 0.531915,0.53192 0.250747,0 0.35461,-0.35461 0.531915,-0.53192 0.177305,-0.1773 0.35461,-0.35461 0.531915,-0.53191 0.177305,-0.17731 0.573137,-0.28458 0.531915,-0.53192 -0.156971,-0.94182 -0.109013,-2.65957 -1.06383,-2.65957 -4.599341,0 -1.629602,2.62572 -1.06383,3.19149 0.177305,0.1773 0.281168,0.53191 0.531915,0.53191 0.250747,0 0.30764,-0.41977 0.531915,-0.53191 0.545554,-0.27278 0.695581,0.45008 0.531915,-0.53192 -0.14863,-0.89178 -0.35461,-1.77305 -0.531915,-2.65957 z"
       id="path2985"
       inkscape:connector-curvature="0"
       transform="translate(0,782.35975)" />
    <path
       style="fill:none;stroke:#000000;stroke-width:1px;stroke-linecap:butt;stroke-linejoin:miter;stroke-opacity:1"
       d="m 60.106383,204.57447 c 1.41844,0 2.836879,0 4.255319,0 0.886525,0 1.77305,0 2.659575,0 0.177305,0 0.406541,-0.12538 0.531914,0 0.125374,0.12537 -0.125373,0.40654 0,0.53191 0.125374,0.12538 0.35461,0 0.531915,0 0.377023,0 3.053963,0.0688 3.19149,0 0.224275,-0.11213 0.30764,-0.41977 0.531915,-0.53191 0.05937,-0.0297 2.600204,-0.0297 2.659574,0 0.224275,0.11214 0.30764,0.41978 0.531915,0.53191 0.16188,0.0809 1.356193,0 1.595745,0 1.241134,0 2.482269,0 3.723404,0 3.191489,0 6.382979,0 9.574468,0 2.12766,0 4.255319,0 6.382979,0 0.369968,0 2.467216,0.0962 2.659574,0 0.224275,-0.11213 0.30764,-0.41977 0.531915,-0.53191 0.04534,-0.0227 2.082315,-0.0227 2.127655,0 0.22428,0.11214 0.30764,0.41978 0.53192,0.53191 0.0594,0.0297 2.6002,0.0297 2.65957,0 0.22428,-0.11213 0.30764,-0.41977 0.53192,-0.53191 0.13986,-0.0699 1.84951,0 2.12766,0 0.19534,0 2.10625,0.0214 2.12766,0 0.12537,-0.12538 -0.15859,-0.45262 0,-0.53192 0.31717,-0.15858 0.70922,0 1.06383,0 0.88652,0 1.77305,0 2.65957,0 0.17731,0 0.37333,0.0793 0.53192,0 0.22427,-0.11213 0.30764,-0.41977 0.53191,-0.53191 0.13986,-0.0699 1.84951,0 2.12766,0 0.36997,0 2.46722,-0.0962 2.65958,0 0.22427,0.11214 0.28116,0.53191 0.53191,0.53191 0.25075,0 0.30764,-0.41977 0.53192,-0.53191 0.16188,-0.0809 1.35619,0 1.59574,0 1.06383,0 2.12766,0 3.19149,0 1.06383,0 2.12766,0 3.19149,0 0.23955,0 1.43386,-0.0809 1.59574,0 0.22428,0.11214 0.30764,0.41978 0.53192,0.53191 0.16188,0.0809 1.35619,0 1.59574,0 1.24114,0 2.48227,0 3.72341,0 2.83688,0 5.67376,0 8.51064,0 1.24743,0 -0.25075,-0.12537 1.06383,0.53192 0.13986,0.0699 1.84951,0 2.12766,0 1.95035,0 3.9007,0 5.85106,0 0.129,0 1.57864,-0.0171 1.59574,0 0.12538,0.12537 -0.12537,0.40654 0,0.53191 0.12538,0.12538 0.35461,0 0.53192,0 0.23955,0 1.43386,0.0809 1.59574,0 0.22428,-0.11213 0.30764,-0.41977 0.53192,-0.53191 0.13753,-0.0688 2.81447,0 3.19149,0 2.65957,0 5.31915,0 7.97872,0"
       id="path2987"
       inkscape:connector-curvature="0"
       transform="translate(0,782.35975)" />
    <path
       style="fill:none;stroke:#000000;stroke-width:1px;stroke-linecap:butt;stroke-linejoin:miter;stroke-opacity:1"
       d="m 172.34043,203.51064 0,-0.53192 c -2.90546,-0.58109 -2.0203,-1.17119 -3.19149,0 -0.17731,0.17731 -0.41978,0.30764 -0.53192,0.53192 -0.15859,0.31717 0.15859,0.74666 0,1.06383 -0.11214,0.22427 -0.41978,0.30764 -0.53191,0.53191 -0.0809,0.16188 0,1.3562 0,1.59575 0,0.1773 -0.12538,0.40654 0,0.53191 0.25074,0.25075 0.81308,-0.25074 1.06383,0 0.12537,0.12538 -0.12538,0.40654 0,0.53192 0.41581,0.41581 0.92534,-0.46268 1.06383,-0.53192 0.42553,-0.21276 1.17021,0.21277 1.59574,0 0.22428,-0.11213 0.35461,-0.35461 0.53192,-0.53191 0.1773,-0.17731 0.53191,-0.28117 0.53191,-0.53192 0,-0.90408 -0.38328,-1.76779 -0.53191,-2.65957 -0.0291,-0.17489 0.14185,-0.42554 0,-0.53192 -0.63435,-0.47576 -1.39144,-0.76934 -2.12766,-1.06383 -0.16463,-0.0659 -0.35461,0 -0.53192,0 -0.55027,0 -0.73518,-0.12537 -1.06383,0.53192 -0.0793,0.15858 -0.1773,0.53191 0,0.53191 0.25075,0 0.30764,-0.41977 0.53192,-0.53191 0.15858,-0.0793 0.35461,0 0.53191,0"
       id="path2989"
       inkscape:connector-curvature="0"
       transform="translate(0,782.35975)" />
    <path
       style="fill:none;stroke:#000000;stroke-width:1px;stroke-linecap:butt;stroke-linejoin:miter;stroke-opacity:1"
       d="m 58.510638,204.57447 c 0,-1.77305 0,-3.5461 0,-5.31915 0,-2.83688 0,-5.67376 0,-8.51064 0,-0.88652 0,-1.77305 0,-2.65957 0,-0.35461 0.08601,-0.71981 0,-1.06383 -0.09616,-0.38463 -0.406541,-0.68771 -0.531915,-1.06383 -0.114878,-0.34464 0,-2.2241 0,-2.65958 0,-1.77305 0,-3.5461 0,-5.31915 0,-1.59574 0,-3.19149 0,-4.78723 0,-0.61791 0.120552,-2.17737 0,-2.65958 -0.09616,-0.38462 -0.435757,-0.6792 -0.531914,-1.06382 -0.08601,-0.34403 0,-0.70922 0,-1.06383 0,-1.06383 0,-2.12766 0,-3.19149 0,-1.24114 0,-2.48227 0,-3.72341 0,-0.35461 0,-0.70922 0,-1.06383 0,-0.35461 0.112137,-0.72742 0,-1.06383 -0.07929,-0.23788 -0.452622,-0.29403 -0.531915,-0.53191 -0.168207,-0.50462 0,-1.06383 0,-1.59575 0,-1.59574 0,-3.19149 0,-4.78723 0,-0.36997 0.09618,-2.46722 0,-2.65958 -0.112138,-0.22427 -0.419778,-0.30764 -0.531915,-0.53191 -0.08094,-0.16188 0,-1.35619 0,-1.59575 0,-1.06383 0,-2.12766 0,-3.19148 0,-0.27815 0.06993,-1.9878 0,-2.12766 -0.112138,-0.22428 -0.419778,-0.30764 -0.531915,-0.53192 -0.09618,-0.19236 0,-2.28961 0,-2.65957 0,-2.30497 0,-4.60993 0,-6.9149 0,-0.36997 0.09618,-2.46721 0,-2.65957 -0.112138,-0.22428 -0.419778,-0.30764 -0.531915,-0.53192 -0.09618,-0.19236 0,-2.2896 0,-2.65957 0,-2.12766 0,-4.25532 0,-6.38298 0,-3.7234 0,-7.44681 0,-11.17021 0,-0.12901 0.01711,-1.57864 0,-1.59575 -0.125374,-0.12537 -0.406541,0.12538 -0.531915,0 -0.07501,-0.075 -0.05456,-1.48663 0,-1.59574 0.112138,-0.22428 0.419777,-0.30764 0.531915,-0.53192 0.08094,-0.16188 0,-1.35619 0,-1.59574 0,-0.17731 0.125373,-0.40654 0,-0.53192 -0.125374,-0.12537 -0.406541,0.12538 -0.531915,0 -0.125374,-0.12537 0,-0.35461 0,-0.53191 0,-0.2508 -0.02411,-2.635469 0,-2.659576 0.125374,-0.125374 0.35461,0 0.531915,0 -0.35461,-0.886525 -0.209816,-2.232568 -1.06383,-2.659574 -0.571791,-0.285896 -0.734922,1.047564 -1.06383,1.595744 -0.20398,0.339967 -0.531915,0.667364 -0.531915,1.06383 0,0.250746 0.419778,0.307636 0.531915,0.531916 0.158587,0.31717 -0.317172,1.22242 0,1.06383 0.792932,-0.39647 1.500792,-2.222614 2.12766,-1.595746 0.626868,0.626866 -1.199279,1.334726 -1.595745,2.127656 -0.07929,0.15859 0.425532,0.14185 0.531915,0 0.475759,-0.63434 0.623991,-1.4679 1.06383,-2.127656 0.629754,-0.944631 1.497905,-1.714943 2.12766,-2.659574 0.09835,-0.147527 0.07929,-0.373329 0,-0.531915 -0.112138,-0.224275 -0.35461,-0.35461 -0.531915,-0.531915 -0.288338,-0.288338 -0.542056,-0.792802 -1.06383,-0.531915 -0.224275,0.112137 -0.30764,0.419777 -0.531915,0.531915 -0.158586,0.07929 -0.373329,-0.07929 -0.531915,0 -0.224275,0.112137 -0.30764,0.419777 -0.531915,0.531915 -0.158586,0.07929 -0.406541,-0.125374 -0.531915,0 -0.125373,0.125373 0.07929,0.373328 0,0.531915 -0.657288,1.314576 -0.531915,-0.183606 -0.531915,1.063829"
       id="path2991"
       inkscape:connector-curvature="0"
       transform="translate(0,782.35975)" />
    <path
       style="fill:none;stroke:#000000;stroke-width:1px;stroke-linecap:butt;stroke-linejoin:miter;stroke-opacity:1"
       d="m 168.08511,202.97872 c 0,0.1264 0.0596,2.00844 0,2.12766 -0.11214,0.22428 -0.41978,0.30764 -0.53192,0.53192 -0.0793,0.15858 -0.1773,0.53191 0,0.53191 0.17731,0 0,-0.35461 0,-0.53191 0,-0.17731 0,-0.35461 0,-0.53192 0,-1.41844 0,-2.83688 0,-4.25532 0,-1.24113 0,-2.48227 0,-3.7234 0,-0.17731 0,-0.35461 0,-0.53192 0,-0.1773 0.0793,-0.37332 0,-0.53191 -0.11214,-0.22428 -0.41978,-0.30764 -0.53191,-0.53192 -0.0809,-0.16172 0,-1.76036 0,-2.12765 0,-1.77305 0,-3.5461 0,-5.31915 0,-0.53192 0,-1.06383 0,-1.59575 0,-0.35461 0.086,-0.71981 0,-1.06383 -0.0962,-0.38463 -0.45412,-0.67506 -0.53192,-1.06383 -0.17386,-0.86931 0,-1.77305 0,-2.65957 0,-1.95036 0,-3.90071 0,-5.85107 0,-1.95035 0,-3.90071 0,-5.85106 0,-0.53191 0,-1.06383 0,-1.59574 0,-0.35461 0.086,-0.71981 0,-1.06383 -0.0962,-0.38463 -0.45411,-0.67507 -0.53191,-1.06383 -0.0193,-0.0967 -0.067,-3.45548 0,-3.72341 0.0961,-0.38463 0.43571,-0.6792 0.53191,-1.06383 0.10461,-0.41841 0,-2.63834 0,-3.19149 0,-1.77305 0,-3.5461 0,-5.31915 0,-4.07801 0,-8.15602 0,-12.23404 0,-3.01418 0,-6.02837 0,-9.04255 0,-1.41844 0,-2.83688 0,-4.25532 0,-0.35461 0,-0.70922 0,-1.06383 0,-0.35461 -0.086,-0.71981 0,-1.06383 0.0962,-0.38463 0.40654,-0.68771 0.53192,-1.06383 0.0561,-0.16821 0,-0.35461 0,-0.53192 0,-0.35461 0,-0.70922 0,-1.06383 0,-1.24113 0,-2.48227 0,-3.7234 0,-3.7234 0,-7.44681 0,-11.17021 0,-1.59575 0,-3.19149 0,-4.78724 0,-0.42821 -0.11129,-1.7938 0,-2.12766 0.12537,-0.37612 0.40654,-0.68771 0.53191,-1.063826 0.11214,-0.336412 0,-0.70922 0,-1.06383 0,-0.239552 -0.0809,-1.433865 0,-1.595744 0.11214,-0.224275 0.70922,-0.35461 0.53192,-0.531915 -0.25075,-0.250747 -0.70922,0 -1.06383,0 -0.17731,0 0.53191,0.177305 0.53191,0 0,-0.177305 -0.35461,0 -0.53191,0 -0.17731,0 -0.35461,0 -0.53192,0 -0.27815,0 -1.9878,-0.06993 -2.12766,0 -0.22427,0.112137 -0.30764,0.419777 -0.53191,0.531915 -0.0454,0.02267 -2.08236,0.02267 -2.12766,0 -0.22428,-0.112138 -0.29404,-0.452625 -0.53192,-0.531915 -0.50462,-0.168207 -1.06383,0 -1.59574,0 -0.47945,0 -2.32479,-0.111596 -2.65958,0 -0.37612,0.125373 -0.68771,0.406541 -1.06383,0.531915 -0.3001,0.100035 -1.24622,0 -1.59574,0 -2.12766,0 -4.25532,0 -6.38298,0 -0.52253,0 -2.83968,-0.117269 -3.19149,0 -0.37612,0.125373 -0.68771,0.406541 -1.06383,0.531914 -0.3001,0.100036 -1.24622,0 -1.59574,0 -1.59575,0 -3.19149,0 -4.78724,0 -0.23955,0 -1.43386,-0.08094 -1.59574,0 -0.22428,0.112138 -0.30764,0.419778 -0.53192,0.531915 -0.16172,0.08086 -1.76036,0 -2.12766,0 -1.59574,0 -3.19149,0 -4.78723,0 -1.59575,0 -3.19149,0 -4.78723,0 -0.27815,0 -1.9878,0.06993 -2.12766,0 -0.22428,-0.112137 -0.30764,-0.419777 -0.53192,-0.531915 -0.19236,-0.09618 -2.28961,0 -2.65957,0 -0.17731,0 -0.40654,0.125374 -0.53192,0 -0.12537,-0.125373 0.12538,-0.406541 0,-0.531914 -0.0214,-0.02141 -1.93232,0 -2.12766,0 -1.41844,0 -2.83688,0 -4.25532,0 -0.53191,0 -1.09112,-0.168207 -1.59574,0 -0.23788,0.07929 -0.30764,0.419777 -0.53192,0.531914 -0.15223,0.07612 -2.37542,0 -2.65957,0 -0.27815,0 -1.9878,0.06993 -2.12766,0 -0.22428,-0.112137 -0.30764,-0.419777 -0.53192,-0.531914 -0.16188,-0.08094 -1.35619,0 -1.59574,0 -1.06383,0 -2.12766,0 -3.19149,0 -2.482269,0 -4.964539,0 -7.446808,0 -0.886525,0 -1.77305,0 -2.659575,0 -0.35461,0 -0.727417,-0.112138 -1.06383,0 -0.37612,0.125373 -0.687709,0.406541 -1.063829,0.531914 -0.333859,0.111287 -1.69945,0 -2.12766,0 -2.482269,0 -4.964539,0 -7.446808,0 -0.535667,0 -2.897331,-0.09805 -3.19149,0 -0.237879,0.07929 -0.30764,0.419778 -0.531915,0.531915 -0.350443,0.175222 -2.699595,-0.163964 -3.191489,0 -0.23788,0.07929 -0.294035,0.452625 -0.531915,0.531915 -0.243491,0.08116 -2.362682,0 -2.659574,0 -1.41844,0 -2.83688,0 -4.25532,0 -0.709219,0 -1.421352,-0.06421 -2.127659,0 -1.248587,0.113508 -2.48227,0.35461 -3.723404,0.531915 1.06383,-1.595745 1.977036,-3.302903 3.191489,-4.787234 0.404818,-0.494777 1.084319,-0.68026 1.595745,-1.06383 0.601793,-0.451344 0.993951,-1.1444 1.595744,-1.595744 0.317173,-0.23788 0.746657,-0.294036 1.06383,-0.531915 0.401195,-0.300897 0.662635,-0.762934 1.06383,-1.06383 0.317173,-0.23788 0.783486,-0.251571 1.06383,-0.531915 0.280343,-0.280344 0.294035,-0.746657 0.531915,-1.06383 0.300896,-0.401195 0.709219,-0.70922 1.063829,-1.06383 0.35461,-0.354609 0.662635,-0.762933 1.06383,-1.063829 0.317173,-0.23788 0.746657,-0.294036 1.06383,-0.531915 1.102426,-0.82682 2.097521,-2.316315 3.191489,-3.19149 0.499196,-0.399356 1.09655,-0.664473 1.595745,-1.063829 0.783202,-0.626562 1.325269,-1.525867 2.12766,-2.12766 0.317172,-0.237879 0.746657,-0.294035 1.063829,-0.531915 0.401196,-0.300896 0.662635,-0.762933 1.06383,-1.06383 0.317173,-0.237879 0.723863,-0.327934 1.06383,-0.531914 0.54818,-0.328908 1.084319,-0.680261 1.595745,-1.06383 0.595744,-0.446809 1,-1.148936 1.595744,-1.595745 0.317173,-0.23788 0.746657,-0.294035 1.06383,-0.531915 0.401195,-0.300896 0.70922,-0.70922 1.06383,-1.06383 0.606909,-0.606908 1.997434,-2.162969 2.659574,-2.659574 0.317173,-0.23788 0.746657,-0.294035 1.06383,-0.531915 0.601793,-0.451345 0.969842,-1.178476 1.595745,-1.595745 0.329879,-0.219919 0.73395,-0.311995 1.06383,-0.531915 0.273368,-0.182245 0.790461,-0.881583 1.063829,-1.063829 0.32988,-0.21992 0.733951,-0.311996 1.06383,-0.531915 0.45899,-0.305993 1.180273,-1.180273 1.595745,-1.595745 0.177305,-0.177305 0.30764,-0.419777 0.531915,-0.531915 0.158586,-0.07929 0.373328,0.07929 0.531915,0 0.224275,-0.112137 0.30764,-0.419777 0.531915,-0.531915 0.158586,-0.07929 0.373328,0.07929 0.531914,0 0.224275,-0.112137 0.30764,-0.419777 0.531915,-0.531915 0.158587,-0.07929 0.406542,0.125374 0.531915,0 0.125374,-0.125373 -0.125373,-0.406541 0,-0.531915 0.125374,-0.125373 0.373329,0.07929 0.531915,0 0.224275,-0.112137 0.30764,-0.419777 0.531915,-0.531914 1.56532,-0.782662 -0.70031,1.232224 1.06383,-0.531915 1.41844,-0.531915 2.80431,-1.160443 4.25532,-1.595745 0.67689,-0.203067 2.54764,0.214616 3.19149,0 0.23788,-0.07929 0.30764,-0.419777 0.53191,-0.531915 0.15859,-0.07929 0.35461,0 0.53192,0 0.35461,0 0.70922,0 1.06383,0 0.42444,0 2.34045,0.106373 2.65957,0 0.37612,-0.125373 0.68771,-0.406541 1.06383,-0.531915 0.38027,-0.126756 3.1261,0 3.72341,0 0.1773,0 0.37332,0.07929 0.53191,0 0.22428,-0.112137 0.29404,-0.452621 0.53192,-0.531915 0.3453,-0.115102 3.24022,0 3.7234,0 1.06383,0 2.12766,0 3.19149,0 0.53191,0 1.09113,0.168207 1.59574,0 0.23788,-0.07929 0.30764,-0.419777 0.53192,-0.531915 0.15776,-0.07888 2.677,0 3.19149,0 1.06383,0 2.12766,0 3.19149,0 0.34952,0 1.29564,0.100036 1.59574,0 0.37612,-0.125373 0.68771,-0.406541 1.06383,-0.531914 0.33642,-0.112138 0.74666,0.158586 1.06383,0 0.22428,-0.112138 0.30764,-0.419778 0.53192,-0.531915 0.34554,-0.172773 2.32217,0.168701 2.65957,0 0.22428,-0.112138 0.30764,-0.419778 0.53192,-0.531915 0.15858,-0.07929 0.35461,0 0.53191,0 0.17731,0 0.35461,0 0.53192,0 0.70922,0 1.41844,0 2.12766,0 2.30496,0 4.60993,0 6.91489,0 1.59574,0 3.19149,0 4.78723,0 0.21028,0 2.43241,0.113586 2.65958,0 0.22427,-0.112138 0.29403,-0.452622 0.53191,-0.531915 0.31121,-0.103737 2.73493,0 3.19149,0 0.3673,0 1.96594,-0.08086 2.12766,0 0.22428,0.112137 0.30764,0.419777 0.53192,0.531915 0.15223,0.07612 2.37542,0 2.65957,0 2.12766,0 4.25532,0 6.38298,0 2.65957,0 5.31915,0 7.97872,0 1.06383,0 2.12766,0 3.19149,0 0.35461,0 0.70922,0 1.06383,0 0.17731,0 0.37333,0.07929 0.53192,0 0.22427,-0.112138 0.30764,-0.419778 0.53191,-0.531915 0.0569,-0.02843 2.90048,-0.097 3.19149,0 0.37612,0.125373 0.68771,0.406541 1.06383,0.531915 0.30972,0.103241 2.8255,0 3.19149,0 2.12766,0 4.25532,0 6.38298,0 2.12766,0 4.25532,0 6.38298,0 0.35461,0 0.70922,0 1.06383,0 0.1773,0 0.53191,-0.177305 0.53191,0 0,0.177305 -0.35461,0 -0.53191,0 -0.17731,0 -0.35461,0 -0.53192,0 -1.46029,0 -0.74665,-0.158587 -2.12766,0.531915"
       id="path2993"
       inkscape:connector-curvature="0"
       transform="translate(0,782.35975)" />
    <path
       style="fill:none;stroke:#000000;stroke-width:1px;stroke-linecap:butt;stroke-linejoin:miter;stroke-opacity:1"
       d="m 166.48936,96.595745 c 7.768,-8.365538 4.51964,-5.051551 9.57447,-10.106383 0.70922,-0.70922 1.35714,-1.485562 2.12766,-2.12766 0.30457,-0.253811 0.74666,-0.294035 1.06383,-0.531915 0.40119,-0.300896 0.65575,-0.772342 1.06383,-1.06383 9.25666,-5.553994 -1.06294,0.93018 3.7234,-2.659574 0.31718,-0.23788 0.78349,-0.251571 1.06383,-0.531915 0.28035,-0.280344 0.25157,-0.783486 0.53192,-1.06383 0.28034,-0.280343 0.74665,-0.294035 1.06383,-0.531915 0.80239,-0.601793 1.32527,-1.525866 2.12766,-2.127659 0.31717,-0.23788 0.78348,-0.251571 1.06383,-0.531915 0.28034,-0.280344 0.25157,-0.783486 0.53191,-1.06383 0.28035,-0.280344 0.78349,-0.251571 1.06383,-0.531915 0.28035,-0.280344 0.25157,-0.783486 0.53192,-1.06383 0.28034,-0.280343 0.78348,-0.251571 1.06383,-0.531914 0.28034,-0.280344 0.25157,-0.783486 0.53191,-1.06383 0.28035,-0.280344 0.73395,-0.311995 1.06383,-0.531915 0.20864,-0.13909 0.35461,-0.35461 0.53192,-0.531915 0.35461,-0.177305 0.73395,-0.311995 1.06383,-0.531915 0.78269,-0.521799 1.34496,-1.60586 2.12766,-2.127659 0.32987,-0.21992 0.73395,-0.311996 1.06383,-0.531915 0.24294,-0.161966 0.82088,-0.901864 1.06382,-1.06383 0.32988,-0.21992 0.73396,-0.311995 1.06383,-0.531915 0.41727,-0.278179 0.70922,-0.70922 1.06383,-1.06383 0.53192,-0.531915 1.06383,-1.06383 1.59575,-1.595745 0.1773,-0.177304 0.30764,-0.419777 0.53191,-0.531914 0.15859,-0.07929 0.37333,0.07929 0.53192,0 0.6383,-0.319149 0.95745,-1.276596 1.59574,-1.595745 0.15859,-0.07929 0.40654,0.125373 0.53192,0 0.12537,-0.125374 -0.12538,-0.406541 0,-0.531915 0.12537,-0.125374 0.40654,0.125374 0.53191,0 0.12538,-0.125374 -0.12537,-0.406541 0,-0.531915 0.12538,-0.125373 0.40654,0.125374 0.53192,0 0.12537,-0.125373 0,-0.35461 0,-0.531915 0.1773,0 0.37333,0.07929 0.53191,0 0.22428,-0.112137 0.30764,-0.419777 0.53192,-0.531915 0.15858,-0.07929 0.53191,-0.177305 0.53191,0 0,0.177305 -0.53191,0.177305 -0.53191,0 0,-0.250747 0.41978,-0.30764 0.53191,-0.531915 0.35461,-0.709219 -0.53191,-0.531914 0.53192,-0.531914 0.35461,1.41844 0.70922,2.836879 1.06383,4.255319 0.1773,0.531915 0.39593,1.051798 0.53191,1.595744 0.1202,0.480798 0,2.566338 0,3.19149 0,0.531915 0.12901,1.079711 0,1.595744 -0.0961,0.384629 -0.40654,0.68771 -0.53191,1.06383 -0.0561,0.168206 0,0.35461 0,0.531915 0,0.35461 0,0.70922 0,1.06383 0,0.70922 0,1.41844 0,2.127659 0,0.296892 -0.0812,2.416084 0,2.659575 0.0793,0.23788 0.45262,0.294035 0.53191,0.531915 0.16821,0.504619 0,1.06383 0,1.595745 0,7.446808 0,14.893617 0,22.340425 0,1.241136 0,2.482266 0,3.723406 0,0.35461 0,0.70922 0,1.06383 0,0.1773 -0.0561,0.36371 0,0.53191 0.61121,1.83363 0.53192,0.39403 0.53192,1.59575 0,0.1773 0.0561,0.36371 0,0.53191 -0.12538,0.37612 -0.40654,0.68771 -0.53192,1.06383 -0.0561,0.16821 0,0.35461 0,0.53192 0,0.35461 0,0.70922 0,1.06383 0,1.06383 0,2.12766 0,3.19149 0,0.28415 0.0761,2.50734 0,2.65957 -0.11213,0.22428 -0.53191,0.28117 -0.53191,0.53192 0,0.39646 0.53191,0.66736 0.53191,1.06383 0,0.25074 -0.41977,0.30764 -0.53191,0.53191 -0.0793,0.15859 0,0.35461 0,0.53192 0,0.35461 0,0.70922 0,1.06383 0,0.88652 0,1.77304 0,2.65957 0,0.53191 0.1682,1.09113 0,1.59574 -0.0793,0.23788 -0.45262,0.29404 -0.53192,0.53192 -0.0808,0.24232 0,3.36318 0,3.7234 0,0.17731 0.0561,0.36371 0,0.53192 -0.12537,0.37612 -0.40654,0.68771 -0.53191,1.06383 -0.0561,0.1682 0,0.35461 0,0.53191 0,0.35461 0,0.70922 0,1.06383 0,0.88653 0,1.77305 0,2.65958 0,3.5461 0,7.0922 0,10.6383 0,1.41843 0,2.83687 0,4.25531 0,0.17731 0.12537,0.40655 0,0.53192 -0.12538,0.12537 -0.40654,-0.12537 -0.53192,0 -0.0171,0.0171 0,1.46674 0,1.59574 0,0.37703 -0.0688,3.05397 0,3.19149 0.11214,0.22428 0.41978,0.30764 0.53192,0.53192 0.0793,0.15858 0,0.35461 0,0.53191 0,1.06383 0,2.12766 0,3.19149 0,0.17731 0.12537,0.40654 0,0.53192 -0.12538,0.12537 -0.40654,-0.12538 -0.53192,0 -0.0171,0.0171 0,1.46674 0,1.59574 0,1.59575 0,3.19149 0,4.78724 0,0.1773 0,0.35461 0,0.53191 0,0.17731 -0.12537,0.40654 0,0.53192 0.12538,0.12537 0.35461,0 0.53192,0"
       id="path2995"
       inkscape:connector-curvature="0"
       transform="translate(0,782.35975)" />
    <path
       style="fill:none;stroke:#000000;stroke-width:1px;stroke-linecap:butt;stroke-linejoin:miter;stroke-opacity:1"
       d="m 169.14894,202.97872 c 2.05862,-1.85276 3.26052,-4.53022 5.31915,-6.38298 0.76845,-0.69161 1.83248,-0.97543 2.65957,-1.59574 0.80239,-0.60179 1.41844,-1.41844 2.12766,-2.12766 0.35461,-0.35461 0.66263,-0.76293 1.06383,-1.06383 0.31717,-0.23788 0.78348,-0.25157 1.06383,-0.53191 0.28034,-0.28035 0.25157,-0.78349 0.53191,-1.06383 0.28035,-0.28035 0.78349,-0.25158 1.06383,-0.53192 0.28035,-0.28034 0.29404,-0.74666 0.53192,-1.06383 0.30029,-0.40038 2.25919,-2.35929 2.65957,-2.65957 0.31718,-0.23788 0.73395,-0.312 1.06383,-0.53192 0.20864,-0.13909 0.32328,-0.39282 0.53192,-0.53191 0.32988,-0.21992 0.78348,-0.25157 1.06383,-0.53192 0.28034,-0.28034 0.25157,-0.78348 0.53191,-1.06383 0.28035,-0.28034 0.73395,-0.31199 1.06383,-0.53191 0.49778,-0.33185 1.787,-1.787 2.12766,-2.12766 0.17731,-0.17731 0.32328,-0.39283 0.53192,-0.53192 0.32988,-0.21992 0.78348,-0.25157 1.06383,-0.53191 0.28034,-0.28035 0.25157,-0.78349 0.53191,-1.06383 0.28034,-0.28035 0.74666,-0.29404 1.06383,-0.53192 0.60179,-0.45134 0.96984,-1.17847 1.59575,-1.59574 0.32988,-0.21992 0.73395,-0.312 1.06383,-0.53192 0.73175,-0.48783 0.54706,-0.82059 1.06383,-1.59574 0.33184,-0.49777 1.787,-1.787 2.12765,-2.12766 0.41548,-0.41547 1.28976,-1.13676 1.59575,-1.59575 0.21992,-0.32987 0.31199,-0.73395 0.53191,-1.06382 0.306,-0.45899 1.18028,-1.18028 1.59575,-1.59575 0.1773,-0.1773 0.35461,-0.35461 0.53191,-0.53191 0.17731,-0.17731 0.30764,-0.41978 0.53192,-0.53192 0.15859,-0.0793 0.37333,0.0793 0.53191,0 2.21371,-1.10685 -0.56863,0.0367 0.53192,-1.06383 0.12537,-0.12537 0.37333,0.0793 0.53191,0 0.44855,-0.22427 0.61528,-0.83955 1.06383,-1.06383 1.41844,0 -0.1773,0.17731 0.53192,-0.53191 0.31789,-0.31789 1.06383,0.57493 1.06383,-0.53192 0,-0.1773 -0.40654,-0.12537 -0.53192,0 -0.12537,0.12537 0,0.35461 0,0.53192"
       id="path2997"
       inkscape:connector-curvature="0"
       transform="translate(0,782.35975)" />
    <path
       style="fill:none;stroke:#000000;stroke-width:1px;stroke-linecap:butt;stroke-linejoin:miter;stroke-opacity:1"
       d="m 65.957447,198.19149 5.851064,-4.78723"
       id="path2999"
       inkscape:connector-curvature="0"
       transform="translate(0,782.35975)" />
    <path
       style="fill:none;stroke:#000000;stroke-width:1px;stroke-linecap:butt;stroke-linejoin:miter;stroke-opacity:1"
       d="m 61.702128,201.38298 c 5.183089,-4.03129 3.357755,-2.29393 5.851063,-4.78724"
       id="path3001"
       inkscape:connector-curvature="0"
       transform="translate(0,782.35975)" />
    <path
       style="fill:none;stroke:#000000;stroke-width:1px;stroke-linecap:butt;stroke-linejoin:miter;stroke-opacity:1"
       d="m 76.06383,190.74468 c 1.41844,-1.41844 2.836879,-2.83688 4.255319,-4.25532"
       id="path3003"
       inkscape:connector-curvature="0"
       transform="translate(0,782.35975)" />
    <path
       style="fill:none;stroke:#000000;stroke-width:1px;stroke-linecap:butt;stroke-linejoin:miter;stroke-opacity:1"
       d="M 86.702128,182.23404 101.59574,168.93617"
       id="path3005"
       inkscape:connector-curvature="0"
       transform="translate(0,782.35975)" />
    <path
       style="fill:none;stroke:#000000;stroke-width:1px;stroke-linecap:butt;stroke-linejoin:miter;stroke-opacity:1"
       d="m 106.38298,61.489362 c 0,13.154985 -0.87223,2.702473 0.53191,6.914893 0.069,0.206981 -0.0825,1.513199 0,1.595745 0.12538,0.125374 0.35461,0 0.53192,0"
       id="path3007"
       inkscape:connector-curvature="0"
       transform="translate(0,782.35975)" />
    <path
       style="fill:none;stroke:#000000;stroke-width:1px;stroke-linecap:butt;stroke-linejoin:miter;stroke-opacity:1"
       d="m 106.91489,75.851064 c 0.54664,6.559671 0.53192,4.247944 0.53192,6.914893"
       id="path3009"
       inkscape:connector-curvature="0"
       transform="translate(0,782.35975)" />
    <path
       style="fill:none;stroke:#000000;stroke-width:1px;stroke-linecap:butt;stroke-linejoin:miter;stroke-opacity:1"
       d="m 107.97872,89.680851 c -5.848,16.300759 0,2.763195 0,7.446809"
       id="path3011"
       inkscape:connector-curvature="0"
       transform="translate(0,782.35975)" />
    <path
       style="fill:none;stroke:#000000;stroke-width:1px;stroke-linecap:butt;stroke-linejoin:miter;stroke-opacity:1"
       d="m 107.97872,101.91489 c -0.5736,2.32638 -0.53191,4.58582 -0.53191,6.9149"
       id="path3013"
       inkscape:connector-curvature="0"
       transform="translate(0,782.35975)" />
    <path
       style="fill:none;stroke:#000000;stroke-width:1px;stroke-linecap:butt;stroke-linejoin:miter;stroke-opacity:1"
       d="m 107.44681,113.61702 0,13.29787"
       id="path3015"
       inkscape:connector-curvature="0"
       transform="translate(0,782.35975)" />
    <path
       style="fill:none;stroke:#000000;stroke-width:1px;stroke-linecap:butt;stroke-linejoin:miter;stroke-opacity:1"
       d="m 107.44681,131.17021 0,11.17022 c 0,3.19149 0,6.38298 0,9.57446"
       id="path3017"
       inkscape:connector-curvature="0"
       transform="translate(0,782.35975)" />
    <path
       style="fill:none;stroke:#000000;stroke-width:1px;stroke-linecap:butt;stroke-linejoin:miter;stroke-opacity:1"
       d="m 107.44681,157.76596 0.53191,7.97872"
       id="path3019"
       inkscape:connector-curvature="0"
       transform="translate(0,782.35975)" />
    <path
       style="fill:none;stroke:#000000;stroke-width:1px;stroke-linecap:butt;stroke-linejoin:miter;stroke-opacity:1"
       d="m 106.91489,167.87234 9.57447,-0.53191"
       id="path3021"
       inkscape:connector-curvature="0"
       transform="translate(0,782.35975)" />
    <path
       style="fill:none;stroke:#000000;stroke-width:1px;stroke-linecap:butt;stroke-linejoin:miter;stroke-opacity:1"
       d="m 120.74468,166.80851 10.10638,0"
       id="path3023"
       inkscape:connector-curvature="0"
       transform="translate(0,782.35975)" />
    <path
       style="fill:none;stroke:#000000;stroke-width:1px;stroke-linecap:butt;stroke-linejoin:miter;stroke-opacity:1"
       d="m 134.57447,167.34043 8.51064,0"
       id="path3025"
       inkscape:connector-curvature="0"
       transform="translate(0,782.35975)" />
    <path
       style="fill:none;stroke:#000000;stroke-width:1px;stroke-linecap:butt;stroke-linejoin:miter;stroke-opacity:1"
       d="m 151.06383,166.2766 11.70213,-0.53192"
       id="path3027"
       inkscape:connector-curvature="0"
       transform="translate(0,782.35975)" />
    <path
       style="fill:none;stroke:#000000;stroke-width:1px;stroke-linecap:butt;stroke-linejoin:miter;stroke-opacity:1"
       d="m 165.95745,165.74468 10.10638,-0.53191"
       id="path3029"
       inkscape:connector-curvature="0"
       transform="translate(0,782.35975)" />
    <path
       style="fill:none;stroke:#000000;stroke-width:1px;stroke-linecap:butt;stroke-linejoin:miter;stroke-opacity:1"
       d="m 178.7234,165.21277 10.6383,-0.53192"
       id="path3031"
       inkscape:connector-curvature="0"
       transform="translate(0,782.35975)" />
    <path
       style="fill:none;stroke:#000000;stroke-width:1px;stroke-linecap:butt;stroke-linejoin:miter;stroke-opacity:1"
       d="M 192.55319,164.68085 200,164.14894"
       id="path3033"
       inkscape:connector-curvature="0"
       transform="translate(0,782.35975)" />
    <path
       style="fill:#ff0000;stroke:#000000;stroke-width:1px;stroke-linecap:butt;stroke-linejoin:miter;stroke-opacity:1"
       d="m 203.19149,164.14894 6.38298,0"
       id="path3035"
       inkscape:connector-curvature="0"
       transform="translate(0,782.35975)" />
    <path
       style="fill:none;stroke:#f70a67;stroke-width:1px;stroke-linecap:butt;stroke-linejoin:miter;stroke-opacity:1"
       d="m 213.82979,57.234043 c 0,0.761151 0.25074,1.204413 -0.53192,1.595744 -0.15858,0.07929 -0.37333,-0.07929 -0.53191,0 -0.22428,0.112138 -0.30764,0.419778 -0.53192,0.531915 -0.15858,0.07929 -0.37333,-0.07929 -0.53191,0 -0.22428,0.112138 -0.35461,0.35461 -0.53192,0.531915 -0.1773,0.177305 -0.41977,0.30764 -0.53191,0.531915 -0.0793,0.158586 0.12537,0.406541 0,0.531915 -1.10053,1.100551 0.043,-1.681788 -1.06383,0.531915 -0.0793,0.158586 0.12537,0.406541 0,0.531915 -0.12538,0.125373 -0.37333,-0.07929 -0.53192,0 -0.22427,0.112137 -0.30764,0.419777 -0.53191,0.531914 -0.15859,0.07929 -0.40654,-0.125373 -0.53192,0 -0.12537,0.125374 0.0793,0.373329 0,0.531915 -0.0697,0.139366 -0.99413,0.924464 -1.06383,1.06383 -0.0793,0.158587 0.12538,0.406542 0,0.531915 -0.12537,0.125374 -0.37332,-0.07929 -0.53191,0 -0.6383,0.319149 -0.95745,1.276596 -1.59575,1.595745 -0.15858,0.07929 -0.37332,-0.07929 -0.53191,0 -0.52342,0.26171 -1.60424,1.86595 -2.12766,2.127659 -0.15859,0.07929 -0.40654,-0.125373 -0.53192,0 -0.12537,0.125374 0.0793,0.373329 0,0.531915 -0.11213,0.224275 -0.35461,0.35461 -0.53191,0.531915 -0.17731,0.177305 -0.30764,0.419777 -0.53192,0.531915 -0.15858,0.07929 -0.37332,-0.07929 -0.53191,0 -0.47146,0.235728 -1.11153,1.272938 -1.59574,1.595745 -0.32988,0.219919 -0.73395,0.311995 -1.06383,0.531915 -0.48421,0.322806 -1.12429,1.360016 -1.59575,1.595744 -0.15859,0.07929 -0.37333,-0.07929 -0.53191,0 -0.14123,0.07062 -1.52515,1.454516 -1.59575,1.595745 -0.0793,0.158586 0.12537,0.406541 0,0.531915 -0.12537,0.125373 -0.37333,-0.07929 -0.53191,0 -0.52342,0.26171 -1.60424,1.86595 -2.12766,2.127659 -0.15859,0.07929 -0.37333,-0.07929 -0.53192,0 -0.52342,0.26171 -1.60424,1.86595 -2.12766,2.12766 -0.15858,0.07929 -0.37333,-0.07929 -0.53191,0 -0.33882,0.169407 -2.24162,2.241613 -2.65958,2.659574 -0.1773,0.177305 -0.30764,0.419778 -0.53191,0.531915 -0.15859,0.07929 -0.37333,-0.07929 -0.53192,0 -0.28408,0.142044 -1.31571,1.315711 -1.59574,1.595745 -0.88653,0.886525 -1.77305,1.77305 -2.65958,2.659574 -1.41844,1.41844 -2.83688,2.83688 -4.25532,4.25532 -0.28003,0.280034 -1.4537,1.311657 -1.59574,1.595744 -0.0793,0.158587 0.0793,0.373329 0,0.531915 -0.58805,1.176093 -0.33013,0.165065 -1.06383,0.531915 -0.22427,0.112138 -0.35461,0.35461 -0.53191,0.531915 -0.17731,0.177305 -0.35461,0.35461 -0.53192,0.531915 -1.24113,1.241135 -2.48227,2.482269 -3.7234,3.723404 -0.28004,0.280034 -1.31166,1.453701 -1.59575,1.595741 -0.15858,0.0793 -0.37333,-0.0793 -0.53191,0 -0.44855,0.22428 -0.64656,0.78565 -1.06383,1.06383 -0.32988,0.21992 -0.73395,0.312 -1.06383,0.53192 -0.73176,0.48784 -0.54707,0.82059 -1.06383,1.59574 -0.48784,0.73176 -0.8206,0.54707 -1.59575,1.06383 -0.24295,0.16197 -0.82088,0.90187 -1.06383,1.06383 -0.32988,0.21992 -0.78348,0.25157 -1.06383,0.53192 -0.28034,0.28034 -0.31199,0.73395 -0.53191,1.06383 -0.17318,0.25976 -1.8679,1.95448 -2.12766,2.12766 -0.32988,0.21992 -0.74666,0.29403 -1.06383,0.53191 -0.60179,0.45135 -1.06383,1.06383 -1.59575,1.59575 -0.28003,0.28003 -1.31165,1.4537 -1.59574,1.59574 -0.15859,0.0793 -0.37333,-0.0793 -0.53192,0 -0.22427,0.11214 -0.35461,0.35461 -0.53191,0.53192 -0.53192,0.53191 -1.06383,1.06383 -1.59574,1.59574 -0.17731,0.17731 -0.32329,0.39283 -0.53192,0.53192 -0.32988,0.21992 -0.73395,0.31199 -1.06383,0.53191 -0.45899,0.30599 -1.18027,1.18027 -1.59574,1.59575 -0.28004,0.28003 -1.31166,1.4537 -1.59575,1.59574 -0.15859,0.0793 -0.37333,-0.0793 -0.53191,0 -0.14123,0.0706 -1.52515,1.45452 -1.59575,1.59574 -0.0793,0.15859 0.0793,0.37333 0,0.53192 -0.31915,0.6383 -1.27659,0.95745 -1.59574,1.59574 -0.0793,0.15859 0.12537,0.40655 0,0.53192 -0.12538,0.12537 -0.37333,-0.0793 -0.53192,0 -0.10182,0.0509 -2.07676,2.02584 -2.12766,2.12766 -0.0793,0.15859 0.12538,0.40654 0,0.53191 -0.12537,0.12538 -0.37333,-0.0793 -0.53191,0 -0.22428,0.11214 -0.35461,0.35461 -0.53192,0.53192 -0.70922,0.70922 -1.41844,1.41844 -2.12766,2.12766 -0.1773,0.1773 -0.35461,0.35461 -0.53191,0.53191 -0.17731,0.17731 -0.30764,0.41978 -0.53192,0.53192 -0.15858,0.0793 -0.37333,-0.0793 -0.53191,0 -0.97923,0.48963 -0.0846,1.10611 -1.06383,1.59574 -0.15859,0.0793 -0.37333,-0.0793 -0.53192,0 -0.70202,0.35101 -0.3618,0.71282 -1.06383,1.06383 -0.15858,0.0793 -0.35461,0 -0.53191,0 -0.35461,0.17731 -0.70922,0.35461 -1.06383,0.53192 -0.20864,0.13909 -0.30764,0.41977 -0.53192,0.53191 -0.15858,0.0793 -0.37332,-0.0793 -0.53191,0 -0.6383,0.31915 -0.95745,1.2766 -1.59575,1.59575 -0.15858,0.0793 -0.37332,-0.0793 -0.53191,0 -1.17609,0.58804 -0.16506,0.33013 -0.53192,1.06383 -0.11213,0.22427 -0.35461,0.35461 -0.53191,0.53191 -0.1773,0.17731 -0.30764,0.41978 -0.53191,0.53192 -0.15859,0.0793 -0.40655,-0.12538 -0.53192,0 -0.12537,0.12537 0.0793,0.37332 0,0.53191 -0.31915,0.6383 -1.2766,0.95745 -1.59574,1.59575 -0.0793,0.15858 0.12537,0.40654 0,0.53191 -0.12538,0.12537 -0.37333,-0.0793 -0.53192,0 -0.52342,0.26171 -1.60424,1.86595 -2.12766,2.12766 -0.15859,0.0793 -0.37333,-0.0793 -0.53191,0 -2.21371,1.10683 0.56863,-0.0367 -0.53192,1.06383 -0.12537,0.12537 -0.37333,-0.0793 -0.53191,0 -0.44855,0.22428 -0.61528,0.83955 -1.06383,1.06383 -0.15859,0.0793 -0.40654,-0.12537 -0.53192,0 -1.10055,1.10053 1.68179,-0.043 -0.53191,1.06383 -0.15859,0.0793 -0.37333,-0.0793 -0.53192,0 -0.44855,0.22427 -0.61528,0.83955 -1.06383,1.06383 -0.15858,0.0793 -0.37333,-0.0793 -0.53191,0 -0.17491,0.0875 -0.88892,0.97633 -1.06383,1.06383 -0.15859,0.0793 -0.40654,-0.12537 -0.53192,0 -1.10055,1.10053 1.68179,-0.043 -0.53191,1.06383 -0.15859,0.0793 -0.37333,-0.0793 -0.53192,0 -0.44855,0.22427 -0.61528,0.83955 -1.06383,1.06383 -0.15858,0.0793 -0.40654,-0.12537 -0.53191,0 -1.10055,1.10053 1.68179,-0.043 -0.53192,1.06383 -0.7337,0.36685 -0.47578,-0.64418 -1.06383,0.53191 -0.36685,0.7337 0.64418,0.47579 -0.53191,1.06383 -0.7337,0.36685 -0.47578,-0.64417 -1.06383,0.53192 -0.36685,0.7337 0.64418,0.47578 -0.53192,1.06383 -0.15858,0.0793 -0.37332,-0.0793 -0.53191,0 -0.22428,0.11214 -0.35461,0.35461 -0.53192,0.53191 -0.1773,0.17731 -0.41977,0.30764 -0.53191,0.53192 -0.0793,0.15858 0.0793,0.37333 0,0.53191 -0.11214,0.22428 -0.35461,0.35461 -0.53192,0.53192 -0.1773,0.1773 -0.35461,0.35461 -0.53191,0.53191 -0.70922,0.70922 -1.41844,1.41844 -2.12766,2.12766 -0.31284,0.31284 -1.881341,2.0045 -2.12766,2.12766 -0.158586,0.0793 -0.373328,-0.0793 -0.531915,0 -0.638298,0.31915 -0.957446,1.2766 -1.595744,1.59575 -0.158587,0.0793 -0.373329,-0.0793 -0.531915,0 -0.44855,0.22427 -0.61528,0.83955 -1.06383,1.06383 -0.158586,0.0793 -0.373329,-0.0793 -0.531915,0 -0.97926,0.48963 -0.08457,1.10611 -1.06383,1.59574 -0.158586,0.0793 -0.373328,-0.0793 -0.531915,0 -2.213702,1.10683 0.568636,-0.0367 -0.531915,1.06383 -0.709219,0.70922 -0.531914,-0.88652 -0.531914,0.53192 -1.10685,2.2137 0.03672,-0.56864 -1.06383,0.53191 -0.125374,0.12537 0.07929,0.37333 0,0.53192 -0.112138,0.22427 -0.35461,0.35461 -0.531915,0.53191 -0.177305,0.17731 -0.30764,0.41978 -0.531915,0.53192 -0.158586,0.0793 -0.406541,-0.12538 -0.531915,0 -0.125373,0.12537 0.07929,0.37332 0,0.53191 -0.319149,0.6383 -1.276596,0.95745 -1.595745,1.59574 -0.07929,0.15859 0.07929,0.37333 0,0.53192 -0.112137,0.22427 -0.354609,0.35461 -0.531914,0.53191 -0.177305,0.17731 -0.30764,0.41978 -0.531915,0.53192 -0.158587,0.0793 -0.406542,-0.12537 -0.531915,0 -0.125374,0.12537 0.07929,0.37333 0,0.53191 -0.319149,0.6383 -1.276596,0.95745 -1.595745,1.59575 -0.07929,0.15859 0.07929,0.37333 0,0.53191 -0.05091,0.10182 -2.02584,2.07676 -2.127659,2.12766 -0.158587,0.0793 -0.373329,-0.0793 -0.531915,0 -0.48886,0.24443 -1.724048,1.99313 -2.12766,2.12766 -0.336412,0.11214 -0.746657,-0.15858 -1.06383,0 -0.158586,0.0793 0.125374,0.40654 0,0.53192 -0.280344,0.28034 -0.783486,0.25157 -1.06383,0.53191 -0.125373,0.12538 0.07929,0.37333 0,0.53192 -0.112137,0.22427 -0.354609,0.35461 -0.531914,0.53191 -0.177305,0.17731 -0.30764,0.41978 -0.531915,0.53192 -0.158587,0.0793 -0.373329,-0.0793 -0.531915,0 -0.224275,0.11213 -0.35461,0.35461 -0.531915,0.53191 -0.177305,0.17731 -0.419777,0.30764 -0.531915,0.53192 -0.07929,0.15858 0.07929,0.37333 0,0.53191 -0.123159,0.24632 -1.814817,1.81482 -2.12766,2.12766 -0.177305,0.17731 -0.307639,0.41978 -0.531914,0.53192 -0.158587,0.0793 -0.452625,-0.15859 -0.531915,0 -0.158587,0.31717 0.112137,0.72741 0,1.06383 -0.134538,0.40361 -1.88323,1.6388 -2.12766,2.12766 -0.07929,0.15858 0.07929,0.37332 0,0.53191 -0.142044,0.28409 -1.31571,1.31571 -1.595745,1.59575 -0.873796,0.87379 -1.710806,1.86893 -2.659574,2.65957 -0.591087,0.49257 -3.616556,2.71963 -4.255319,3.7234 -0.851412,1.33794 -1.41844,2.83688 -2.12766,4.25532 2.04034,-1.06647 2.933877,-1.06383 4.787234,-1.06383 0.177305,0 0.373329,0.0793 0.531915,0 0.224275,-0.11213 0.30764,-0.41977 0.531915,-0.53191 0.425532,-0.21277 1.170213,0.21276 1.595745,0 0.224275,-0.11214 0.30764,-0.41978 0.531915,-0.53192 0.158586,-0.0793 0.35461,0 0.531914,0 0.177305,0 0.35461,0 0.531915,0 0.886525,0 1.77305,0 2.659575,0 0.177305,0 0.406541,0.12538 0.531915,0 0.125373,-0.12537 -0.125374,-0.40654 0,-0.53191 0.108743,-0.10874 1.384845,0.10545 1.595744,0 0.224275,-0.11214 0.30764,-0.41978 0.531915,-0.53192 0.334321,-0.16716 1.79334,0.16716 2.12766,0 0.224275,-0.11213 0.30764,-0.41977 0.531915,-0.53191 0.317173,-0.15859 0.813082,0.25075 1.06383,0 0.125373,-0.12537 -0.125374,-0.40654 0,-0.53192 0.108742,-0.10874 1.384844,0.10545 1.595744,0 0.224275,-0.11213 0.30764,-0.41977 0.531915,-0.53191 0.2109,-0.10545 1.487002,0.10874 1.595745,0 0.125373,-0.12537 -0.125374,-0.40654 0,-0.53192 0.145543,-0.14554 1.839102,0.14428 2.127659,0 0.224275,-0.11213 0.30764,-0.41977 0.531915,-0.53191 0.335569,-0.16778 2.324006,0.16778 2.659575,0 0.224275,-0.11214 0.30764,-0.41978 0.531915,-0.53192 0.425532,-0.21276 1.170212,0.21277 1.595744,0 0.224275,-0.11213 0.30764,-0.41977 0.531915,-0.53191 0.317173,-0.15859 0.746657,0.15859 1.06383,0 0.224275,-0.11214 0.30764,-0.41978 0.531915,-0.53192 0.33432,-0.16716 1.793339,0.16717 2.127659,0 0.224276,-0.11213 0.30764,-0.41977 0.531915,-0.53191 0.334321,-0.16716 1.79334,0.16716 2.12766,0 0.224275,-0.11214 0.30764,-0.41978 0.531915,-0.53191 0.158586,-0.0793 0.35461,0 0.531915,0 0.35461,0 0.727417,0.11213 1.06383,0 0.237879,-0.0793 0.307639,-0.41978 0.531914,-0.53192 0.23669,-0.11834 1.884369,0.0811 2.12766,0 0.23788,-0.0793 0.30764,-0.41978 0.53191,-0.53191 0.28223,-0.14112 0.78161,0.14111 1.06383,0 0.22428,-0.11214 0.30764,-0.41978 0.53192,-0.53192 0.15859,-0.0793 0.35461,0 0.53191,0 0.35461,0 0.72742,0.11214 1.06383,0 0.23788,-0.0793 0.30764,-0.41978 0.53192,-0.53191 0.31717,-0.15859 0.72742,0.11213 1.06383,0 0.37612,-0.12538 0.68771,-0.40655 1.06383,-0.53192 0.33641,-0.11214 0.74666,0.15859 1.06383,0 0.22427,-0.11214 0.30764,-0.41978 0.53191,-0.53191 0.15859,-0.0793 0.35461,0 0.53192,0 0.35461,0 0.72742,0.11213 1.06383,0 0.23788,-0.0793 0.30764,-0.41978 0.53191,-0.53192 0.15859,-0.0793 0.36371,0.0561 0.53192,0 0.37612,-0.12537 0.68771,-0.40654 1.06383,-0.53191 0.1682,-0.0561 0.36371,0.0561 0.53191,0 0.37612,-0.12538 0.6792,-0.43576 1.06383,-0.53192 0.34402,-0.086 0.72742,0.11214 1.06383,0 0.23788,-0.0793 0.29404,-0.45262 0.53192,-0.53191 0.33641,-0.11214 0.72741,0.11213 1.06383,0 0.23788,-0.0793 0.29403,-0.45263 0.53191,-0.53192 0.33641,-0.11214 0.72742,0.11214 1.06383,0 0.23788,-0.0793 0.30764,-0.41978 0.53192,-0.53191 0.31717,-0.15859 0.74665,0.15858 1.06383,0 0.22427,-0.11214 0.30764,-0.41978 0.53191,-0.53192 0.31717,-0.15858 0.72742,0.11214 1.06383,0 0.37612,-0.12537 0.68771,-0.40654 1.06383,-0.53191 0.33641,-0.11214 0.74666,0.15858 1.06383,0 0.22428,-0.11214 0.30764,-0.41978 0.53192,-0.53192 0.31717,-0.15858 0.72741,0.11214 1.06383,0 0.37612,-0.12537 0.6877,-0.40654 1.06382,-0.53191 0.33642,-0.11214 0.74666,0.15858 1.06383,0 0.22428,-0.11214 0.30764,-0.41978 0.53192,-0.53192 0.15859,-0.0793 0.35461,0 0.53191,0 0.35461,0 0.72742,0.11214 1.06383,0 0.23788,-0.0793 0.30764,-0.41978 0.53192,-0.53191 0.31384,-0.15692 1.22988,0.12195 1.59574,0 0.37612,-0.12538 0.68771,-0.40654 1.06383,-0.53192 0.42814,-0.14271 1.78776,0.16995 2.12766,0 0.22428,-0.11214 0.29404,-0.45262 0.53192,-0.53191 0.29416,-0.0981 2.65582,0 3.19149,0 2.42143,0 0.0304,0.25074 1.59574,-0.53192 0.15859,-0.0793 0.35461,0 0.53192,0 0.37702,0 3.05396,0.0688 3.19149,0 0.22427,-0.11214 0.30764,-0.41978 0.53191,-0.53191 0.33557,-0.16779 2.32401,0.16778 2.65958,0 0.22427,-0.11214 0.29403,-0.45262 0.53191,-0.53192 0.24329,-0.0811 1.89097,0.11835 2.12766,0 0.22428,-0.11213 0.29404,-0.45262 0.53192,-0.53191 0.24329,-0.0811 1.89096,0.11834 2.12765,0 0.22428,-0.11214 0.30764,-0.41978 0.53192,-0.53192 0.31717,-0.15858 0.72742,0.11214 1.06383,0 0.37612,-0.12537 0.68771,-0.40654 1.06383,-0.53191 0.33641,-0.11214 0.74666,0.15858 1.06383,0 0.22427,-0.11214 0.30764,-0.41978 0.53191,-0.53192 0.42554,-0.21276 1.17022,0.21277 1.59575,0 0.22427,-0.11213 0.30764,-0.41977 0.53191,-0.53191 0.33432,-0.16716 1.79334,0.16716 2.12766,0 0.22428,-0.11214 0.29404,-0.45262 0.53192,-0.53192 0.56522,-0.1884 1.56244,0.18841 2.12766,0 0.37612,-0.12537 0.68771,-0.40654 1.06383,-0.53191 0.50462,-0.16821 1.09112,0.1682 1.59574,0 0.23788,-0.0793 0.30764,-0.41978 0.53192,-0.53192 0.15858,-0.0793 0.35461,0 0.53191,0 0.35461,0 0.72742,0.11214 1.06383,0 0.23788,-0.0793 0.30764,-0.41977 0.53192,-0.53191 0.15858,-0.0793 0.35461,0 0.53191,0 0.35461,0 0.72742,0.11214 1.06383,0 0.23788,-0.0793 0.29404,-0.45262 0.53192,-0.53192 0.33641,-0.11213 0.7198,0.086 1.06383,0 0.38462,-0.0962 0.6877,-0.40654 1.06383,-0.53191 0.1682,-0.0561 0.3637,0.0561 0.53191,0 0.37612,-0.12537 0.68771,-0.40654 1.06383,-0.53192 0.16821,-0.0561 0.36371,0.0561 0.53192,0 0.37612,-0.12537 0.6877,-0.40654 1.06382,-0.53191 0.16821,-0.0561 0.36371,0.0561 0.53192,0 0.37612,-0.12537 0.68771,-0.40654 1.06383,-0.53192 0.16821,-0.0561 0.36371,0.0561 0.53191,0 0.37613,-0.12537 0.68771,-0.40654 1.06383,-0.53191 0.16821,-0.0561 0.37333,0.0793 0.53192,0 0.22427,-0.11214 0.29403,-0.45262 0.53191,-0.53192 2.42143,0 0.0304,0.25075 1.59575,-0.53191 0.31717,-0.15859 0.74666,0.15859 1.06383,0 0.22427,-0.11214 0.30764,-0.41978 0.53191,-0.53192 0.2109,-0.10545 1.48701,0.10875 1.59575,0 0.12537,-0.12537 -0.12538,-0.40654 0,-0.53191 0.10874,-0.10874 1.38484,0.10545 1.59574,0 0.22428,-0.11214 0.30764,-0.41978 0.53192,-0.53192 0.31717,-0.15858 0.74665,0.15859 1.06383,0 0.22427,-0.11213 0.30764,-0.41977 0.53191,-0.53191 0.31718,-0.15859 0.81309,0.25075 1.06383,0 0.12538,-0.12537 -0.12537,-0.40654 0,-0.53192 0.17574,-0.17573 0.88809,0.17574 1.06383,0 0.12538,-0.12537 -0.12537,-0.40654 0,-0.53191 0.25075,-0.25075 0.74666,0.15859 1.06383,0 0.22428,-0.11214 0.30764,-0.41978 0.53192,-0.53191 0.42553,-0.21277 1.17021,0.21276 1.59574,0 0.22428,-0.11214 0.30764,-0.41978 0.53192,-0.53192 0.31717,-0.15859 0.74665,0.15859 1.06383,0 0.22427,-0.11214 0.30764,-0.41978 0.53191,-0.53191 0.28856,-0.14428 1.98212,0.14554 2.12766,0 0.12537,-0.12538 -0.12537,-0.40655 0,-0.53192 0.10874,-0.10874 1.38485,0.10545 1.59575,0 0.22427,-0.11214 0.30763,-0.41978 0.53191,-0.53191 0.31717,-0.15859 0.81308,0.25074 1.06383,0 0.12537,-0.12538 -0.12537,-0.40655 0,-0.53192 0.10874,-0.10874 1.38484,0.10545 1.59574,0 0.22428,-0.11214 0.30764,-0.41978 0.53192,-0.53191 0.31717,-0.15859 0.74666,0.15858 1.06383,0 0.22427,-0.11214 0.30764,-0.41978 0.53191,-0.53192 0.31718,-0.15859 0.74666,0.15859 1.06383,0 0.22428,-0.11214 0.30764,-0.41978 0.53192,-0.53191 0.15859,-0.0793 0.53191,-0.17731 0.53191,0 0,0.1773 -0.65728,-0.12538 -0.53191,0 1.22241,1.22241 1.06383,0.65504 1.06383,0"
       id="path3807"
       inkscape:connector-curvature="0"
       transform="translate(0,782.35975)" />
    <path
       style="fill:none;stroke:#000000;stroke-width:1px;stroke-linecap:butt;stroke-linejoin:miter;stroke-opacity:1"
       d="m 95.744681,162.55319 c 4.553389,0.72488 0.830785,0.27254 4.787229,1.06383 0.17387,0.0348 0.37333,-0.0793 0.53192,0 0.57179,0.2859 1.10463,0.65457 1.59574,1.06383 0.57789,0.48157 1.06383,1.06383 1.59575,1.59575 0.1773,0.1773 0.30764,0.41977 0.53191,0.53191 0.15859,0.0793 0.40655,-0.12537 0.53192,0 1.10055,1.10055 -1.68179,-0.043 0.53191,1.06383 0.15859,0.0793 0.40655,-0.12537 0.53192,0 0.12537,0.12537 -0.0793,0.37333 0,0.53192 0.11214,0.22427 0.41978,0.30764 0.53191,0.53191 0.0793,0.15859 -0.12537,0.40654 0,0.53192 0.12538,0.12537 0.40654,-0.12538 0.53192,0 0.12537,0.12537 -0.0793,0.37332 0,0.53191 1.76414,1.76414 -0.25075,-0.50149 0.53191,1.06383 0.11214,0.22427 0.41978,0.30764 0.53192,0.53191 0.0793,0.15859 -0.0793,0.37333 0,0.53192 0.11214,0.22427 0.41978,0.30764 0.53191,0.53191 0.15859,0.31718 -0.15858,0.74666 0,1.06383 0.11214,0.22428 0.41978,0.30764 0.53192,0.53192 0.16716,0.33432 -0.16716,1.79334 0,2.12766 0.11214,0.22427 0.41978,0.30764 0.53191,0.53191 0.21277,0.42554 -0.21276,1.17022 0,1.59575 0.11214,0.22427 0.41978,0.30764 0.53192,0.53191 0.0809,0.16188 0,1.3562 0,1.59575 0,1.06383 0,2.12766 0,3.19149 0,1.06383 0,2.12766 0,3.19149 0,0.1773 0,0.35461 0,0.53191 0,0.17731 0.0793,0.37333 0,0.53192 -0.11214,0.22427 -0.41978,0.30764 -0.53192,0.53191 -0.0793,0.15859 0,0.35461 0,0.53192 0,0.1773 0,0.35461 0,0.53191 0,1.41844 0.17731,-0.1773 -0.53191,0.53192 -0.12538,0.12537 -0.17731,0.53191 0,0.53191 0.65729,0 0.53191,-0.74594 0.53191,-1.06383"
       id="path3809"
       inkscape:connector-curvature="0"
       transform="translate(0,782.35975)" />
    <text
       xml:space="preserve"
       style="font-size:19.64427567px;font-style:normal;font-weight:normal;line-height:125%;letter-spacing:0px;word-spacing:0px;fill:#000000;fill-opacity:1;stroke:none;font-family:symbol;-inkscape-font-specification:symbol"
       x="91.74102"
       y="954.63733"
       id="text3811"
       sodipodi:linespacing="125%"
       transform="scale(0.98533128,1.0148871)"><tspan
         sodipodi:role="line"
         id="tspan3813"
         x="91.74102"
         y="954.63733">A</tspan></text>
    <text
       xml:space="preserve"
       style="font-size:16.42480278px;font-style:normal;font-weight:normal;line-height:125%;letter-spacing:0px;word-spacing:0px;fill:#000000;fill-opacity:1;stroke:none;font-family:symbol;-inkscape-font-specification:symbol"
       x="118.4026"
       y="924.99042"
       id="text3815"
       sodipodi:linespacing="125%"
       transform="scale(1.0125453,0.98761014)"><tspan
         sodipodi:role="line"
         id="tspan3817"
         x="118.4026"
         y="924.99042">D</tspan></text>
  </g>
</svg>
